<?xml version="1.0" encoding="utf-8"?>
<!-- Generator: Adobe Illustrator 22.0.1, SVG Export Plug-In . SVG Version: 6.00 Build 0)  -->
<svg version="1.1" xmlns="http://www.w3.org/2000/svg" xmlns:xlink="http://www.w3.org/1999/xlink" x="0px" y="0px"
	 viewBox="0 0 150 150" style="enable-background:new 0 0 150 150;" xml:space="preserve">
<style type="text/css">
	.st0{display:none;}
	.st1{display:inline;}
	.st2{fill:#9AA7AF;}
</style>
<g id="Layer_1" class="st0">
	<g class="st1">
		<path class="st2" d="M74.4,128.9c-16.1,0-32.1,0.2-48.2,0c-16.1-0.2-22.3-6.6-22.6-22.5c-0.1-2.4,0-4.8,0-7.2
			c0-38.7,0-38.6,25-67.4c6.2-7.2,13.6-10.9,23.2-10.8c15,0.2,30.1,0,45.1,0.1c3,0,6.2,0.2,9.1,1c13.4,3.7,39,36.6,39.2,50.4
			c0.2,11.6,0.2,23.2,0,34.9c-0.3,14.6-6.8,21.2-21.5,21.5C107.2,129.2,90.8,128.9,74.4,128.9z M15.1,67.2c0.7,1,1.4,2,2.1,3.1
			c9.2,0,18.3,0.2,27.5-0.1c6.1-0.2,10.3,0.9,12,7.9c2.1,8.4,8.3,13.2,17.3,13.3c9.4,0.1,15.8-4.8,18.1-13.6
			c1.7-6.4,5.4-7.8,11.2-7.6c9.6,0.2,19.3,0.1,28.9,0.1c0.5-1,0.9-2.1,1.4-3.1c-9-10.5-18-21-27-31.5c-21.2-0.1-42.4-0.2-63.7-0.4
			C33.6,46,24.4,56.6,15.1,67.2z"/>
	</g>
</g>
<g id="Layer_2" class="st0">
	<g class="st1">
		<path class="st2" d="M6.3,85.4c31.3-3.2,62-6.3,92.6-9.4c0-0.7,0-1.3,0-2c-30.7-3.1-61.3-6.2-92.5-9.4c0-17,0-33.7,0-51.5
			C51.9,33.5,96.9,53.8,144,75C97.1,96.1,52.1,116.3,6.3,137C6.3,119.3,6.3,102.8,6.3,85.4z"/>
	</g>
</g>
<g id="Layer_3" class="st0">
	<g class="st1">
		<path class="st2" d="M47.1,130.1c-10.2,0-20.4,0.2-30.6-0.1c-11.1-0.3-16.2-8.5-11.1-18.3c8.8-17.1,23.9-24,42.4-24
			c18.5,0,33.6,6.8,42.5,23.8c5.1,9.8,0.2,18.1-10.8,18.5C68.7,130.3,57.9,130.1,47.1,130.1z"/>
		<path class="st2" d="M103.9,20.9c13.2,0,24.3,11.5,24.5,25.5c0.2,14.4-11.2,26.3-24.7,26.1c-13.2-0.2-23.9-11.8-23.9-25.9
			C79.8,32.5,90.7,21,103.9,20.9z"/>
		<path class="st2" d="M70.9,55.2c0.1,14-10.7,25.6-24,25.7C33,81.2,22.1,69.6,22.3,55c0.2-14.3,10.8-25.3,24.3-25.3
			C60,29.8,70.8,41.2,70.9,55.2z"/>
		<path class="st2" d="M104.5,120.7c-0.9-16.4-11.2-26.9-23.5-36.1c17.1-11.4,50.5-5.6,62.8,15.7c7,12.2,2.6,20.8-11.3,21.3
			c-7.9,0.3-15.9,0.1-23.9,0C107.3,121.5,106.1,121,104.5,120.7z"/>
	</g>
</g>
<g id="Layer_4" class="st0">
	<g class="st1">
		<path class="st2" d="M90.7,76.5c0,15.1,0.1,30.1,0,45.2c-0.2,14.4-3.8,21.5-11,22.1c-3.1,0.3-6.2,0.3-9.3,0
			c-7.3-0.6-11-7.6-11.1-22c-0.2-30.6-0.2-61.2,0-91.8c0.1-14.4,3.8-21.5,11-22.1c3.1-0.3,6.2-0.2,9.3,0c7.2,0.6,10.9,7.6,11.1,22
			C90.8,45.4,90.7,60.9,90.7,76.5z"/>
		<path class="st2" d="M96.5,88.6c0-10.4-0.2-20.7,0-31.1c0.3-13.5,3.9-20.6,10.7-21.3c2.6-0.3,5.2-0.1,7.8-0.1
			c9.4,0.2,12.8,6.8,12.9,25.6c0.1,19.3,0.1,38.6,0,57.9c-0.1,16.9-3.6,23.9-12.1,24.2c-3.1,0.1-6.2,0.4-9.3-0.1
			c-6.1-0.9-9.6-7.7-9.9-19.8C96.2,112.2,96.5,100.4,96.5,88.6z"/>
		<path class="st2" d="M22.1,106.1c0-4.7-0.1-9.4,0-14.1c0.1-2.8,0.1-5.7,0.6-8.3c2.3-12.7,9.9-17.5,21.9-13.2c6,2.1,8.9,10,8.9,22
			c0,9.9,0.1,19.8,0,29.6c-0.3,14.2-3.9,21.2-11.2,21.8c-2.1,0.2-4.3,0.1-6.4,0c-10.7-0.1-13.8-6.3-13.8-27.9
			C22.1,112.7,22.1,109.4,22.1,106.1z"/>
	</g>
</g>
<g id="Layer_5" class="st0">
	<g class="st1">
		<path class="st2" d="M33.7,120.3c-6.3,0-10.1,0.1-13.9,0c-9.3-0.4-15.6-6.3-15.7-15.6c-0.2-21.6-0.2-43.2,0-64.7
			c0.1-8.8,6.4-15.1,15.2-15.2c31.9-0.2,63.7-0.2,95.6,0c9.2,0.1,15.4,6.4,15.5,15.7c0.2,21.3,0.2,42.7,0,64
			c-0.1,9.9-6.6,15.7-17,15.8c-16.2,0.1-32.4,0.2-48.6,0c-4.3-0.1-6.8,1.1-9,5.1c-5.6,10.2-15,15.2-26.4,16.4c-2,0.2-4.2-1-6.3-1.5
			c1-1.8,1.9-3.7,2.9-5.5C28.3,130.4,30.6,126.1,33.7,120.3z"/>
		<path class="st2" d="M21,15.2c4.8-2,9.6-5.6,14.5-5.7c31.3-0.5,62.7-0.4,94-0.2c10.2,0,16.3,6.2,16.4,16.4
			c0.2,21.1,0.1,42.1,0,63.2c0,6-2.6,10.7-9.2,14.6c0-7.4,0-13.6,0-19.9c0-13.9,0.1-27.7,0-41.6c-0.1-14.7-8.8-23.4-23.6-23.4
			c-27.5-0.1-55,0-82.5,0c-2.8,0-5.6,0-8.4,0C21.8,17.4,21.4,16.3,21,15.2z"/>
	</g>
</g>
<g id="Layer_6">
	<g>
		<path class="st2" d="M31.1,51.9c2.8,15.7,13.4,23.4,27.5,26.4c8.5,1.8,17.3,2,26,2.5c1.6,0.1,3.4-1.9,5.1-2.9
			c-1.7-1-3.3-2.6-5.1-2.8c-7.4-0.8-15-0.6-22.3-2C52,71.1,42.6,67,38.5,56c-3.9-10.4-0.6-17.1,9.4-21.6c3-1.3,5.3-4.3,7.8-6.6
			c2.9-2.7,5.7-5.5,8.3-8.4c3.4-3.8,6.6-7.8,11-13c9.5-0.1,24.8,11.1,29.8,25.2c2.3,6.4,5.7,9.4,11.7,11.8c10,4,17.8,11.1,22.2,21.2
			c4.7,10.7,1.6,21.9-7.6,28.4c-7-8.3-10.4-9.2-20.2-0.6c-20.7,18.1-44.6,21.2-70.2,16.8c-14.5-2.5-25.9-9.5-30.6-25
			C6.5,72.8,14.5,54.1,31.1,51.9z"/>
		<path class="st2" d="M25.1,111.3c6.1,1.6,11.5,2.5,16.5,4.5c2.1,0.9,3.2,4.2,4.7,6.5c1.5,2.2,2.9,4.5,4.3,6.8
			c0.5-2.8,1.2-5.5,1.5-8.3c0.1-0.9-0.4-1.9-0.7-3.4c2.5,0,4.9,0,7.7,0c0.3,2.6,0.3,5.1,1,7.4c0.5,1.6,2.1,2.8,3.2,4.2
			c0.9-1.5,2.3-2.9,2.5-4.4c0.4-2.2-0.1-4.4-0.3-6.9c4.7-2.2,7.4-1.7,7.7,4.4c0.1,2.4,2.1,4.6,3.2,6.9c0.9-2.5,2.6-5.2,2.4-7.6
			c-0.5-5.8,1.9-7.7,7.9-7c-0.2,3.5-0.8,6.9-0.6,10.3c0.1,1.5,1.8,2.9,2.8,4.4c1-1.2,2.5-2.2,2.9-3.6c0.6-2.1,1-4.5,0.7-6.7
			c-0.8-6.7,2.5-10.1,9.2-11.5c-0.8,5.5-1.8,10.9-2.2,16.4c-0.1,1.7,1.4,3.6,2.2,5.4c1.2-1.5,3.1-2.9,3.5-4.6
			c1.1-4.6,2.3-9.4,2.1-14c-0.4-10.5,6.9-13.9,14.4-17.8c4.5,4.1,5.8,8.3,4.2,14.1c-2.5,9.1-4.3,18.5-6.1,27.7
			c-1.4,6.7-5.1,9.7-12,9.6c-22-0.2-43.9-0.1-65.9,0c-5.4,0-9.6-1.7-11.1-6.9C28.7,128.7,27.1,120.2,25.1,111.3z"/>
	</g>
</g>
</svg>
