<?xml version="1.0" encoding="utf-8"?>
<!-- Generator: Adobe Illustrator 22.0.1, SVG Export Plug-In . SVG Version: 6.00 Build 0)  -->
<svg version="1.1" xmlns="http://www.w3.org/2000/svg" xmlns:xlink="http://www.w3.org/1999/xlink" x="0px" y="0px"
	 viewBox="0 0 150 150" style="enable-background:new 0 0 150 150;" xml:space="preserve">
<style type="text/css">
	.st0{display:none;}
	.st1{display:inline;}
	.st2{fill:#9AA7AF;}
</style>
<g id="Layer_1" class="st0">
	<g class="st1">
		<path class="st2" d="M74.4,128.9c-16.1,0-32.1,0.2-48.2,0c-16.1-0.2-22.3-6.6-22.6-22.5c-0.1-2.4,0-4.8,0-7.2
			c0-38.7,0-38.6,25-67.4c6.2-7.2,13.6-10.9,23.2-10.8c15,0.2,30.1,0,45.1,0.1c3,0,6.2,0.2,9.1,1c13.4,3.7,39,36.6,39.2,50.4
			c0.2,11.6,0.2,23.2,0,34.9c-0.3,14.6-6.8,21.2-21.5,21.5C107.2,129.2,90.8,128.9,74.4,128.9z M15.1,67.2c0.7,1,1.4,2,2.1,3.1
			c9.2,0,18.3,0.2,27.5-0.1c6.1-0.2,10.3,0.9,12,7.9c2.1,8.4,8.3,13.2,17.3,13.3c9.4,0.1,15.8-4.8,18.1-13.6
			c1.7-6.4,5.4-7.8,11.2-7.6c9.6,0.2,19.3,0.1,28.9,0.1c0.5-1,0.9-2.1,1.4-3.1c-9-10.5-18-21-27-31.5c-21.2-0.1-42.4-0.2-63.7-0.4
			C33.6,46,24.4,56.6,15.1,67.2z"/>
	</g>
</g>
<g id="Layer_2" class="st0">
	<g class="st1">
		<path class="st2" d="M6.3,85.4c31.3-3.2,62-6.3,92.6-9.4c0-0.7,0-1.3,0-2c-30.7-3.1-61.3-6.2-92.5-9.4c0-17,0-33.7,0-51.5
			C51.9,33.5,96.9,53.8,144,75C97.1,96.1,52.1,116.3,6.3,137C6.3,119.3,6.3,102.8,6.3,85.4z"/>
	</g>
</g>
<g id="Layer_3">
	<g>
		<path class="st2" d="M47.1,130.1c-10.2,0-20.4,0.2-30.6-0.1c-11.1-0.3-16.2-8.5-11.1-18.3c8.8-17.1,23.9-24,42.4-24
			c18.5,0,33.6,6.8,42.5,23.8c5.1,9.8,0.2,18.1-10.8,18.5C68.7,130.3,57.9,130.1,47.1,130.1z"/>
		<path class="st2" d="M103.9,20.9c13.2,0,24.3,11.5,24.5,25.5c0.2,14.4-11.2,26.3-24.7,26.1c-13.2-0.2-23.9-11.8-23.9-25.9
			C79.8,32.5,90.7,21,103.9,20.9z"/>
		<path class="st2" d="M70.9,55.2c0.1,14-10.7,25.6-24,25.7C33,81.2,22.1,69.6,22.3,55c0.2-14.3,10.8-25.3,24.3-25.3
			C60,29.8,70.8,41.2,70.9,55.2z"/>
		<path class="st2" d="M104.5,120.7c-0.9-16.4-11.2-26.9-23.5-36.1c17.1-11.4,50.5-5.6,62.8,15.7c7,12.2,2.6,20.8-11.3,21.3
			c-7.9,0.3-15.9,0.1-23.9,0C107.3,121.5,106.1,121,104.5,120.7z"/>
	</g>
</g>
</svg>
