<?xml version="1.0" encoding="utf-8"?>
<!-- Generator: Adobe Illustrator 22.0.1, SVG Export Plug-In . SVG Version: 6.00 Build 0)  -->
<svg version="1.1" id="Layer_1" xmlns="http://www.w3.org/2000/svg" xmlns:xlink="http://www.w3.org/1999/xlink" x="0px" y="0px"
	 viewBox="0 0 78 78" style="enable-background:new 0 0 78 78;" xml:space="preserve">
<style type="text/css">
	.st0{fill:#9AA7AF;}
</style>
<path class="st0" d="M33,1.5c-4.1,0-7.5,3.4-7.5,7.5v4.5h-15c-1.7,0-3,1.3-3,3s1.3,3,3,3h3.2L16.2,65c0.3,4.8,4.2,8.5,9,8.5h27.7
	c4.8,0,8.7-3.7,9-8.5l2.5-45.5h3.2c1.7,0,3-1.3,3-3s-1.3-3-3-3h-15V9c0-4.1-3.4-7.5-7.5-7.5H33z M33,7.5h12c0.8,0,1.5,0.7,1.5,1.5
	v4.5h-15V9C31.5,8.2,32.2,7.5,33,7.5z M19.7,19.5h38.7l-2.5,45.2c-0.1,1.6-1.4,2.8-3,2.8H25.2c-1.6,0-2.9-1.2-3-2.8L19.7,19.5z
	 M39,25.9c-1.5,0-2.6,1.2-2.6,2.6v30c0,1.4,1.2,2.6,2.6,2.6s2.6-1.2,2.6-2.6v-30C41.6,27.1,40.5,25.9,39,25.9z M28,25.9
	c-1.4,0.1-2.6,1.3-2.5,2.7l1,30.1c0,1.4,1.2,2.5,2.6,2.5c0,0,0.1,0,0.1,0c1.4-0.1,2.6-1.3,2.5-2.7l-1-30.1
	C30.6,27,29.4,25.8,28,25.9z M50,25.9c-1.5,0-2.7,1.1-2.7,2.5l-1,30.1c-0.1,1.4,1.1,2.7,2.5,2.7c0,0,0.1,0,0.1,0
	c1.4,0,2.6-1.1,2.6-2.5l1-30.1C52.6,27.1,51.5,25.9,50,25.9z"/>
</svg>
