<?xml version="1.0" encoding="utf-8"?>
<!-- Generator: Adobe Illustrator 22.0.1, SVG Export Plug-In . SVG Version: 6.00 Build 0)  -->
<svg version="1.1" id="Layer_1" xmlns="http://www.w3.org/2000/svg" xmlns:xlink="http://www.w3.org/1999/xlink" x="0px" y="0px"
	 viewBox="0 0 104 104" style="enable-background:new 0 0 104 104;" xml:space="preserve">
<style type="text/css">
	.st0{fill:#9AA7AF;}
</style>
<path class="st0" d="M80.4,1c-2.4,0-4.7,0.8-6.5,2.6l-4,4.1l26.4,26.5l4-4.1c3.6-3.6,3.6-9.5,0-13.1L87,3.8C85.2,1.9,82.8,1,80.4,1z
	 M65.4,11.4l-6.3,6l27.5,27.5L93,39L65.4,11.4z M55.1,21.8L11.9,64.6c-1,0.5-1.7,1.4-2,2.5L0.6,98.5c-0.4,1.4,0,2.9,1,3.9
	c1,1,2.5,1.4,3.9,1l31.4-9.3c1.5-0.2,2.7-1.2,3.1-2.6l42.6-42.3l-5.9-5.9L33,87.3l-17.6,5.1l-3.8-3.8L17,70.3L60.4,27L55.1,21.8z
	 M64.6,31.4l-43.9,44l6.4,1.4l0.9,5.9l44-43.9L64.6,31.4z"/>
</svg>
