<?xml version="1.0" encoding="utf-8"?>
<!-- Generator: Adobe Illustrator 22.0.1, SVG Export Plug-In . SVG Version: 6.00 Build 0)  -->
<svg version="1.1" xmlns="http://www.w3.org/2000/svg" xmlns:xlink="http://www.w3.org/1999/xlink" x="0px" y="0px"
	 viewBox="0 0 150 150" style="enable-background:new 0 0 150 150;" xml:space="preserve">
<style type="text/css">
	.st0{fill:#9AA7AF;}
</style>
<g id="Layer_1">
	<g>
		<path class="st0" d="M74.4,128.9c-16.1,0-32.1,0.2-48.2,0c-16.1-0.2-22.3-6.6-22.6-22.5c-0.1-2.4,0-4.8,0-7.2
			c0-38.7,0-38.6,25-67.4c6.2-7.2,13.6-10.9,23.2-10.8c15,0.2,30.1,0,45.1,0.1c3,0,6.2,0.2,9.1,1c13.4,3.7,39,36.6,39.2,50.4
			c0.2,11.6,0.2,23.2,0,34.9c-0.3,14.6-6.8,21.2-21.5,21.5C107.2,129.2,90.8,128.9,74.4,128.9z M15.1,67.2c0.7,1,1.4,2,2.1,3.1
			c9.2,0,18.3,0.2,27.5-0.1c6.1-0.2,10.3,0.9,12,7.9c2.1,8.4,8.3,13.2,17.3,13.3c9.4,0.1,15.8-4.8,18.1-13.6
			c1.7-6.4,5.4-7.8,11.2-7.6c9.6,0.2,19.3,0.1,28.9,0.1c0.5-1,0.9-2.1,1.4-3.1c-9-10.5-18-21-27-31.5c-21.2-0.1-42.4-0.2-63.7-0.4
			C33.6,46,24.4,56.6,15.1,67.2z"/>
	</g>
</g>
<g id="Layer_2">
</g>
</svg>
