<?xml version="1.0" encoding="utf-8"?>
<!-- Generator: Adobe Illustrator 22.0.1, SVG Export Plug-In . SVG Version: 6.00 Build 0)  -->
<svg version="1.1" xmlns="http://www.w3.org/2000/svg" xmlns:xlink="http://www.w3.org/1999/xlink" x="0px" y="0px"
	 viewBox="0 0 150 150" style="enable-background:new 0 0 150 150;" xml:space="preserve">
<style type="text/css">
	.st0{fill:#ED349A;}
	.st1{fill:#3DBCE9;}
	.st2{fill:#4937A3;}
</style>
<g id="Layer_1">
	<g>
		<path class="st0" d="M120.1,95.9c-1.1-1.1-1.1-1.8,0-2.9c1.2-1.3,2.1-1.4,3.3,0c3.4,3.8,7,7.5,10.7,11.4c0.8-1,1.2-1.3,1.4-1.7
			c7.8-10.6,11.3-22.4,9.3-35.4c-2.6-16.4-11.4-28.5-26.5-35.7c-14.5-6.9-29.2-6.3-42.8,1.3C89,40.1,97,51.7,99.4,67.2
			c2,13-1.4,24.8-9.3,35.4c-0.3,0.4-0.6,0.7-1.4,1.7c-3.7-3.9-7.3-7.6-10.7-11.4c-1.3-1.4-2.1-1.2-3.3,0c-1.1,1.1-1.1,1.8,0,2.9
			c6,5.8,11.9,11.6,17.8,17.4c2.4,2.4,4.7,4.8,7.4,7.6c-1.1,0-1.9,0-2.7,0c-0.7,0-1.4,0-2.1,0c2.6,0.1,5.2,0.1,7.8,0.1
			c13.2-0.2,26.4-0.1,39.6-0.1c0.8,0,1.5,0,2.7,0c-2.7-2.8-5-5.2-7.4-7.6C132,107.4,126,101.6,120.1,95.9z"/>
		<path class="st1" d="M51.4,78c-1.5-19.4,6.2-34.7,22.8-44.5c0.4-0.2,0.8-0.5,1.2-0.7c-0.8-0.4-1.7-0.9-2.5-1.3
			c-15-7.1-30.1-6.3-44,2C12.3,43.3,4.6,58.6,6.1,78c1.6,19.6,15,35.6,33.9,41.2c5.8,1.7,11.7,1.8,17.7,1.7
			c12.5-0.2,25-0.1,37.6-0.1c-3.4-0.2-6.7-0.6-10-1.6C66.4,113.6,53,97.6,51.4,78z"/>
		<path class="st2" d="M100,120.9c-2.7-2.8-5-5.2-7.4-7.6c-5.9-5.8-11.8-11.6-17.8-17.4c-1.1-1.1-1.1-1.8,0-2.9
			c1.2-1.3,2.1-1.4,3.3,0c3.4,3.8,7,7.5,10.7,11.4c0.8-1,1.2-1.3,1.4-1.7C98,92,101.5,80.2,99.4,67.2C97,51.7,89,40.1,75.5,32.8
			c-0.4,0.2-0.8,0.4-1.2,0.7C57.6,43.3,49.9,58.6,51.4,78c1.6,19.6,15,35.6,33.9,41.2c3.3,1,6.6,1.4,10,1.6c0.7,0,1.4,0,2.1,0
			C98.1,120.9,98.8,120.9,100,120.9z"/>
	</g>
</g>
<g id="Layer_2">
</g>
</svg>
